<svg width="221" height="130" viewBox="0 0 221 130" fill="none" xmlns="http://www.w3.org/2000/svg">
<g clip-path="url(#clip0_426_1638)">
<path d="M0 9C0 4.02944 4.02944 0 9 0H212C216.971 0 221 4.02944 221 9V130H0V9Z" fill="#EFF3F4"/>
<path d="M126.96 95C126.256 95 125.548 94.9352 124.848 94.804C114.012 92.7726 104.139 87.5525 96.2938 79.7071C88.4486 71.8619 83.2282 61.9882 81.1959 51.1522C80.6386 48.1794 81.2835 45.0761 82.9652 42.6377C84.493 40.423 85.9975 38.5811 87.564 37.0066C88.0099 36.5603 88.4962 36.1907 89.0103 35.9065C90.9967 34.7545 93.4476 34.6946 95.5405 35.7607L97.1318 36.5687C98.3093 37.1612 99.301 38.0974 99.9945 39.2745C102.347 43.302 103.857 47.5657 104.486 51.9522C104.652 53.1095 104.293 54.2901 103.502 55.1928L99.3821 59.9481C98.9944 60.3957 98.9526 61.0578 99.2803 61.5596C101.229 64.543 103.517 67.3555 106.08 69.9186C108.643 72.4821 111.455 74.7695 114.439 76.7189C114.941 77.0471 115.603 77.0048 116.051 76.6176L120.812 72.4932C121.707 71.7077 122.889 71.3451 124.047 71.5139C128.433 72.1421 132.697 73.6523 136.721 76.0026C136.723 76.0031 136.724 76.004 136.725 76.0053C137.902 76.6987 138.838 77.69 139.434 78.8724L140.24 80.4606C141.305 82.5528 141.246 85.003 140.081 87.0129C139.81 87.5028 139.441 87.9892 138.996 88.4333C137.42 90.0011 135.578 91.5052 133.362 93.0339C131.499 94.3199 129.247 94.9997 126.961 94.9997L126.96 95ZM92.3977 37.6296C91.6708 37.6296 90.95 37.8177 90.3043 38.1922C89.9822 38.3702 89.6941 38.5913 89.424 38.8614C87.9706 40.3218 86.5645 42.0452 85.1269 44.1295C83.84 45.9952 83.348 48.3786 83.7774 50.6682C85.7111 60.9814 90.6809 70.3811 98.1502 77.8506C105.62 85.32 115.019 90.2891 125.331 92.2233C127.622 92.6502 130.005 92.1603 131.871 90.8739C133.956 89.4346 135.679 88.0285 137.141 86.575C137.409 86.3063 137.63 86.0186 137.795 85.7204C138.514 84.4789 138.549 82.9291 137.898 81.6519L137.089 80.0585C136.719 79.3241 136.133 78.7069 135.393 78.2699C131.664 76.0922 127.722 74.6948 123.675 74.1146C123.284 74.0604 122.858 74.1926 122.537 74.4736L117.77 78.6033C116.442 79.7549 114.482 79.8848 113.003 78.9187C109.867 76.8707 106.914 74.4679 104.223 71.7775C101.532 69.0866 99.1289 66.1322 97.0817 62.9977C96.1156 61.5201 96.2451 59.5593 97.3967 58.2302L101.522 53.4691C101.807 53.1431 101.942 52.7171 101.886 52.3254C101.305 48.2768 99.9069 44.3334 97.7289 40.6041C97.2945 39.8671 96.6773 39.2807 95.9469 38.9133L94.3508 38.1023C93.731 37.7868 93.0622 37.6295 92.3983 37.6295L92.3977 37.6296Z" fill="#85B2BD"/>
</g>
<defs>
<clipPath id="clip0_426_1638">
<rect width="221" height="130" fill="white"/>
</clipPath>
</defs>
</svg>
