<svg width="221" height="130" viewBox="0 0 221 130" fill="none" xmlns="http://www.w3.org/2000/svg">
<g clip-path="url(#clip0_426_1637)">
<path d="M0 9C0 4.02944 4.02944 0 9 0H212C216.971 0 221 4.02944 221 9V130H0V9Z" fill="#FFF0F0"/>
<path fill-rule="evenodd" clip-rule="evenodd" d="M104.742 50.8447C105.33 50.845 105.904 50.671 106.393 50.3448C106.882 50.0186 107.263 49.5548 107.488 49.012C107.713 48.4692 107.772 47.8719 107.658 47.2955C107.544 46.7191 107.261 46.1895 106.846 45.7738C106.43 45.3581 105.901 45.0748 105.325 44.9599C104.749 44.845 104.151 44.9035 103.608 45.1281C103.065 45.3527 102.601 45.7333 102.274 46.2217C101.947 46.7101 101.773 47.2845 101.773 47.8721C101.773 48.6597 102.086 49.4149 102.643 49.9721C103.2 50.5293 103.955 50.8431 104.742 50.8447ZM96.5694 44.9025C95.9817 44.9022 95.4071 45.0763 94.9182 45.4026C94.4294 45.729 94.0484 46.193 93.8233 46.7359C93.5982 47.2789 93.5393 47.8764 93.6539 48.4529C93.7684 49.0293 94.0514 49.5589 94.4671 49.9745C94.8827 50.3901 95.4122 50.6731 95.9887 50.7877C96.5651 50.9023 97.1626 50.8433 97.7056 50.6182C98.2486 50.3932 98.7126 50.0121 99.0389 49.5233C99.3653 49.0345 99.5393 48.4598 99.539 47.8721C99.5382 47.0848 99.2251 46.3299 98.6683 45.7732C98.1116 45.2165 97.3568 44.9033 96.5694 44.9025ZM88.3952 44.9025C87.8074 44.9022 87.2328 45.0763 86.744 45.4026C86.2551 45.729 85.8741 46.193 85.649 46.7359C85.424 47.2789 85.365 47.8764 85.4796 48.4529C85.5942 49.0293 85.8772 49.5589 86.2928 49.9745C86.7084 50.3901 87.2379 50.6731 87.8144 50.7877C88.3909 50.9023 88.9884 50.8433 89.5313 50.6182C90.0743 50.3932 90.5383 50.0121 90.8646 49.5233C91.191 49.0345 91.365 48.4598 91.3647 47.8721C91.3639 47.0848 91.0508 46.3299 90.4941 45.7732C89.9374 45.2165 89.1825 44.9033 88.3952 44.9025ZM133.668 74.3761C134.256 74.3764 134.831 74.2025 135.319 73.8762C135.808 73.55 136.189 73.0862 136.414 72.5434C136.639 72.0006 136.699 71.4033 136.584 70.8269C136.47 70.2505 136.187 69.721 135.772 69.3052C135.357 68.8895 134.827 68.6063 134.251 68.4913C133.675 68.3764 133.077 68.4349 132.534 68.6595C131.991 68.8841 131.527 69.2647 131.2 69.7531C130.874 70.2416 130.699 70.8159 130.699 71.4035C130.7 72.1911 131.013 72.9463 131.569 73.5035C132.126 74.0607 132.881 74.3745 133.668 74.3761ZM125.496 68.434C124.908 68.4337 124.333 68.6077 123.844 68.934C123.356 69.2604 122.975 69.7244 122.749 70.2673C122.524 70.8103 122.465 71.4078 122.58 71.9843C122.695 72.5608 122.978 73.0903 123.393 73.5059C123.809 73.9215 124.338 74.2045 124.915 74.3191C125.491 74.4337 126.089 74.3747 126.632 74.1497C127.175 73.9246 127.639 73.5436 127.965 73.0547C128.291 72.5659 128.466 71.9913 128.465 71.4035C128.464 70.6162 128.151 69.8613 127.595 69.3046C127.038 68.7479 126.283 68.4348 125.496 68.434ZM117.321 68.434C116.734 68.4337 116.159 68.6077 115.67 68.934C115.181 69.2604 114.8 69.7244 114.575 70.2673C114.35 70.8103 114.291 71.4078 114.406 71.9843C114.52 72.5608 114.803 73.0903 115.219 73.5059C115.635 73.9215 116.164 74.2045 116.741 74.3191C117.317 74.4337 117.915 74.3747 118.458 74.1497C119 73.9246 119.465 73.5436 119.791 73.0547C120.117 72.5659 120.291 71.9913 120.291 71.4035C120.29 70.6162 119.977 69.8613 119.42 69.3046C118.864 68.7479 118.109 68.4348 117.321 68.434ZM139.845 53.3581H120.134V39.0653C120.132 36.6619 119.176 34.3577 117.476 32.6583C115.777 30.9588 113.472 30.0028 111.069 30H82.0653C79.6617 30.0032 77.3576 30.9596 75.6582 32.6593C73.9588 34.359 73.0028 36.6633 73 39.0668V56.6819C73 61.1461 76.3284 64.9337 80.6314 65.6317V75.4222C80.632 75.6642 80.7042 75.9006 80.8389 76.1016C80.9736 76.3026 81.1648 76.4593 81.3884 76.5518C81.612 76.6443 81.8579 76.6686 82.0953 76.6215C82.3326 76.5745 82.5508 76.4582 82.7221 76.2874L93.2623 65.7457H101.777V80.0385C101.78 82.4422 102.735 84.7467 104.435 86.4465C106.134 88.1463 108.439 89.1025 110.842 89.1053H128.646L139.188 99.644C139.359 99.8143 139.577 99.9301 139.814 99.9768C140.051 100.024 140.297 99.9992 140.52 99.9067C140.744 99.8143 140.935 99.6579 141.069 99.4572C141.204 99.2565 141.276 99.0205 141.277 98.7788V88.9897C145.582 88.2918 148.908 84.5042 148.908 80.04V62.4173C148.904 60.0152 147.948 57.7128 146.249 56.0147C144.55 54.3166 142.247 53.3613 139.845 53.3581ZM101.779 63.2977H92.756C92.4316 63.2987 92.1207 63.4276 91.8908 63.6565L83.0825 72.4664V64.5202C83.0846 64.2004 82.9606 63.8927 82.7375 63.6636C82.5145 63.4346 82.2101 63.3025 81.8904 63.2961C80.1701 63.24 78.5383 62.5198 77.3375 61.2866C76.1367 60.0534 75.46 58.4031 75.4495 56.6819V39.0653C75.452 37.3113 76.1497 35.6298 77.3898 34.3894C78.6299 33.149 80.3113 32.4508 82.0653 32.448H111.069C112.823 32.4504 114.505 33.1484 115.745 34.3888C116.986 35.6293 117.684 37.311 117.686 39.0653V53.3581H110.844C108.442 53.3613 106.139 54.3166 104.44 56.0147C102.74 57.7127 101.784 60.0151 101.779 62.4173V63.2977ZM140.021 86.6542C139.702 86.6626 139.399 86.7952 139.176 87.0238C138.953 87.2525 138.829 87.5591 138.829 87.8783V95.8244L130.019 87.0146C129.906 86.901 129.771 86.811 129.623 86.7497C129.475 86.6884 129.316 86.657 129.156 86.6573H110.842C109.088 86.6553 107.406 85.9574 106.166 84.7168C104.926 83.4762 104.228 81.7943 104.227 80.04V62.4173C104.229 60.6629 104.927 58.9809 106.167 57.7404C107.408 56.4999 109.09 55.802 110.844 55.8H139.845C141.599 55.802 143.281 56.4999 144.521 57.7405C145.761 58.9811 146.459 60.663 146.46 62.4173V80.04C146.45 81.7609 145.773 83.4107 144.573 84.6438C143.372 85.8768 141.741 86.5973 140.021 86.6542Z" fill="#E9A89B"/>
</g>
<defs>
<clipPath id="clip0_426_1637">
<rect width="221" height="130" fill="white"/>
</clipPath>
</defs>
</svg>
