<svg width="221" height="130" viewBox="0 0 221 130" fill="none" xmlns="http://www.w3.org/2000/svg">
<g clip-path="url(#clip0_426_1639)">
<path d="M221 9C221 4.02944 216.971 0 212 0H9C4.02944 0 3.8147e-06 4.02944 3.8147e-06 9V130H221V9Z" fill="#DFFFDC"/>
<path fill-rule="evenodd" clip-rule="evenodd" d="M127.739 75.8714L138.781 83.7587C140.173 84.7523 142.004 84.8863 143.524 84.1042C145.045 83.3206 146 81.7548 146 80.0444V49.6085C146 47.8981 145.045 46.3324 143.524 45.5487C142.004 44.7666 140.173 44.9006 138.781 45.8942L127.739 53.7815V49.6086C127.739 47.5909 126.937 45.6552 125.512 44.2276C124.084 42.8019 122.148 42 120.131 42H83.6086C81.5909 42 79.6552 42.802 78.2276 44.2276C76.8019 45.6552 76 47.5909 76 49.6086V80.0444C76 82.0621 76.802 83.9978 78.2276 85.4254C79.6552 86.8511 81.5909 87.653 83.6086 87.653H120.131C122.148 87.653 124.084 86.851 125.512 85.4254C126.937 83.9978 127.739 82.0621 127.739 80.0444V75.8714ZM124.696 80.0443V49.6085C124.696 48.3973 124.215 47.2361 123.358 46.3812C122.503 45.5242 121.342 45.0432 120.131 45.0432H83.6086C82.3975 45.0432 81.2362 45.5242 80.3808 46.3812C79.5243 47.2362 79.0433 48.3974 79.0433 49.6085V80.0443C79.0433 81.2555 79.5243 82.4167 80.3808 83.2716C81.2363 84.1286 82.3975 84.6096 83.6086 84.6096H120.131C121.342 84.6096 122.503 84.1286 123.358 83.2716C124.215 82.4166 124.696 81.2554 124.696 80.0443ZM127.739 72.1311V57.5223L140.551 48.3704C141.015 48.0402 141.625 47.9944 142.132 48.2562C142.639 48.5166 142.957 49.0383 142.957 49.609V80.0449C142.957 80.6155 142.639 81.1373 142.132 81.3976C141.625 81.6595 141.015 81.6136 140.551 81.2835L127.739 72.1311Z" fill="#89D283"/>
</g>
<defs>
<clipPath id="clip0_426_1639">
<rect width="221" height="130" fill="white"/>
</clipPath>
</defs>
</svg>
